inDegrees=yes
nColumns=22
nRows=29
DataType=double
version=3
OpenSimVersion=4.5
endheader
time	pelvis_tilt	pelvis_list	pelvis_rotation	pelvis_tx	pelvis_ty	pelvis_tz	hip_flexion_r	hip_adduction_r	hip_rotation_r	knee_angle_r	ankle_angle_r	mtp_angle_r	hip_flexion_l	hip_adduction_l	hip_rotation_l	knee_angle_l	ankle_angle_l	mtp_angle_l	lumbar_extension	lumbar_bending	lumbar_rotation
0.3919879334805569	-1.215401419817194	-1.122320938479589	-0.3404881293328969	0.4417030932678162	0.9831640645984038	0.04480791298889377	-2.857767865600505	3.680006240724384	-4.925706493833347	-3.79024159425482	7.863677395315625	0	30.22758926349012	-7.187420086867566	-6.158109854825241	-41.05776553485414	4.662422024977657	0	-8.432666135051953	1.358023334180285	4.661208275537113
0.4038663557072404	-1.108570090564176	-1.181300318890887	-0.5484787563994226	0.4536992396994295	0.9820956455258057	0.04457584269539491	-3.761996885472661	3.701024043619904	-4.900426354723226	-3.803827722524689	8.365881350270582	0	29.76045037861328	-6.804250245672755	-6.504078716691247	-36.58940561486436	4.016499215514995	0	-8.65165760559716	1.489113330488679	4.812635695646972
0.4157447779339239	-1.024250327205722	-1.287097880551131	-0.7393057526078434	0.4657325781468387	0.9807884472306203	0.04426149507654328	-4.586851759233137	3.760328948227473	-4.907143653896587	-3.933389710769569	8.92003394141833	0	29.19383927760096	-6.460059240508205	-6.910512378567939	-31.98265537319233	3.62068131602378	0	-8.860524343219353	1.664053195663392	4.940332085770006
0.4276232001606076	-0.9609168122668297	-1.431580190308744	-0.9181320894245529	0.4778308071121054	0.9792658998139685	0.04388117014819007	-5.33919384029601	3.850695362424527	-4.947776612890726	-4.168055549731466	9.503426303843632	0	28.52728022913116	-6.153359740649711	-7.433700339974711	-27.25025705943068	3.25654885285779	0	-9.058524627824136	1.871876765865588	5.04785951703671
0.4395016223872911	-0.9163542729958652	-1.600490646377415	-1.090346359932597	0.4900284154627985	0.9775511045138147	0.04343918075272257	-6.025042706080348	3.956915591878694	-5.023351773151265	-4.504871377986105	10.1103747686744	0	27.76253469744309	-5.867175038186074	-8.115637612836281	-22.4192349567844	2.739970225873379	0	-9.243411711585949	2.096495618050568	5.139498335532826
0.4513800446139746	-0.88837679046122	-1.775620079420908	-1.260448011072566	0.5023591879758156	0.9756678554128914	0.04293799042446843	-6.657476470840431	4.060189638769408	-5.133794428888948	-4.922989440454025	10.71824969848215	0	26.91179078984337	-5.574674182331192	-8.971320863989378	-17.55620472153492	1.978600412774551	0	-9.412736244585227	2.316681131371499	5.219564899393765
0.4632584668406581	-0.8749025820322366	-1.95313934328582	-1.430165436486637	0.5148456462816378	0.9736383085979743	0.04238198595846707	-7.243315547352518	4.156468634222224	-5.271769208219357	-5.416978686708955	11.31711009887266	0	26.00616969736379	-5.264797283591178	-9.985979111563024	-12.78747860164669	1.095719834269542	0	-9.565515599858889	2.527131633499053	5.290188328415658
0.4751368890673417	-0.8751522429799528	-2.121915266186551	-1.597716675834942	0.5274591297278377	0.9714807503028576	0.04178364666203518	-7.781038853889688	4.234514372383513	-5.433480665491824	-5.983964414761549	11.8864600453257	0	25.12373671697926	-4.925390261874315	-11.10101668144978	-8.313748919836971	0.3275007898033831	0	-9.707790966049165	2.709783763359475	5.354967783208914
0.4870153112940253	-0.8857526829230534	-2.284746426640835	-1.759103222759906	0.5401776923410322	0.9692349930568259	0.04115166817124627	-8.270441404985799	4.297062830743173	-5.608657774433688	-6.628746901807803	12.41271899386502	0	24.34451586883584	-4.570284285239683	-12.23488754692534	-4.330883510467921	-0.2646586377255654	0	-9.844966176967736	2.864461275445113	5.417090206117237
0.4988937335207088	-0.9030449606418482	-2.427758243613417	-1.911669185118553	0.5529593026869976	0.9669506213815836	0.04050255739291726	-8.708360393062554	4.328739515550275	-5.785124661362568	-7.357808648407911	12.88871222136502	0	23.77102868766154	-4.215930659139091	-13.31053028045496	-1.095020889366255	-0.674486506975825	0	-9.984120867470743	2.970693382683154	5.478407310062694
0.5107721557473923	-0.92431746482877	-2.530574292297256	-2.053163340211827	0.5657652156517305	0.9646844157073102	0.03987482522547001	-9.106218458527506	4.310267943030017	-5.950300478414283	-8.146576846647438	13.29016753080167	0	23.52806525887403	-3.898184937758482	-14.24769924167431	1.055133264569239	-0.8465159529201535	0	-10.12887893589449	2.997455362417127	5.536706035285213
0.5226505779740759	-0.9487062217487127	-2.583959720536312	-2.185508283660977	0.5786070263768224	0.9624999619871595	0.03929803091413642	-9.472086817950808	4.232142010807859	-6.085270785168635	-8.981655360370359	13.60474719417332	0	23.66829893533328	-3.658670778274058	-14.97611061720252	1.944543003303284	-0.8383087119962078	0	-10.27335125288553	2.931253072130898	5.588330440831054
0.5345290002007594	-0.978296299944446	-2.582321229684307	-2.315410965036617	0.5915597358283075	0.960442138208408	0.03878611678294731	-9.813098349210833	4.087563246744629	-6.175062128777051	-9.849492431421591	13.81064646686945	0	24.16216312057348	-3.51742092041987	-15.44201839205794	1.597631171945674	-0.6828586605912801	0	-10.40054655241016	2.767274031082092	5.62930294584096
0.546407422427443	-1.017557890790904	-2.522303331882065	-2.454890299675407	0.6047451342786602	0.9585373992496146	0.03834006724139037	-10.12856748919289	3.87056061837003	-6.214864060394642	-10.75143471654594	13.89423645730565	0	24.90475538293225	-3.462616496934091	-15.61704386668482	0.2405757673550149	-0.5100273766628679	0	-10.48569016014797	2.506258518790716	5.657739380172047
0.5582858446541266	-1.07130211200344	-2.399389007762825	-2.62011040435465	0.6183183940097742	0.9568091594158031	0.03796745307601115	-10.41085083550667	3.572920593643703	-6.207220997006154	-11.70303915143415	13.84265879916108	0	25.73970386661657	-3.459210211408506	-15.47268166280562	-1.761805901074564	-0.7113472136322019	0	-10.4975119700681	2.146697013679375	5.671665781475908
0.57016426688081	-1.143057827664609	-2.218081651620696	-2.828923009825644	0.6324677247098579	0.9552790793950992	0.03767742379989043	-10.65358182128054	3.194710199326439	-6.15095603734883	-12.72344790239674	13.63983925032481	0	26.49323707260745	-3.47233246179319	-14.9583539762669	-4.015596931904391	-1.604399695059824	0	-10.39828123517303	1.698278647780366	5.672536285770162
0.5820426891074936	-1.231935898791834	-2.005266592111346	-3.096054575193851	0.6474124157546001	0.9539648123900105	0.03740509818137592	-10.86527261520022	2.755087961426762	-6.030397106047925	-13.81433330823299	13.24927592211984	0	26.97541013407224	-3.461634100147467	-14.15948616496705	-6.094005899413006	-3.1391862874312	0	-10.15015359077054	1.212381827087293	5.675379033615014
0.5939211113341771	-1.332206928502388	-1.778645814593329	-3.42479393263262	0.6633433670845688	0.9528487547961162	0.03702995554079786	-11.06576490474642	2.263639906627979	-5.837355544908982	-14.96228237264312	12.64021353627114	0	27.03682934271851	-3.364796813406801	-13.31793882976276	-7.669321752941078	-4.342783637296972	0	-9.72754549547232	0.7376024086916719	5.696313425289034
0.6057995335608607	-1.434415715355347	-1.573907674844697	-3.801568595196494	0.6801857557364761	0.9519137370809516	0.0365079351746261	-11.24922552741547	1.758820360302159	-5.600492671518983	-16.18072252432464	11.79173117247745	0	26.75832268142029	-3.20344669149397	-12.57303381413254	-9.051148283816334	-3.265804698641368	0	-9.160074962260502	0.3213616405029618	5.744728396235098
0.6176779557875443	-1.55214515374477	-1.253548075170451	-4.178269990747623	0.6973838131882403	0.9513168787577851	0.03581930063358201	-11.28650219308392	1.105698358263971	-5.388963557275607	-17.59585406346516	10.73251741561094	0	26.31757726455957	-2.857753947611689	-12.04440037030439	-10.08459434385663	-2.707213349915193	0	-8.519558549573663	-0.2089736586963202	5.777436837065878
0.6295563780142277	-1.687739204078132	-0.7282319706868363	-4.516755778483124	0.7145592831695422	0.9511125903099655	0.03497056047065654	-11.09564858527675	0.2209089445354299	-5.229007390317761	-19.30088203387298	9.499412957816142	0	25.82705996601221	-2.263509441617119	-11.67062146982311	-10.71010810252885	-3.151153453587913	0	-7.864870034348176	-0.975085491117668	5.767538862870969
0.6414348002409114	-1.832735389624528	-0.02600936320139021	-4.783601386349178	0.73153395192913	0.9512388344690413	0.03396487802439204	-10.64792652498544	-0.8569594335382423	-5.101481243995488	-21.35327216550791	8.099811644564983	0	25.45532068574124	-1.477909119344553	-11.34075250210775	-11.4051499047723	-3.84978681771817	0	-7.23415022480317	-1.958391453675534	5.707331996177724
0.6533132224675948	-1.971056519111724	0.7363602328337789	-4.961984017683979	0.7482494056595126	0.9516489173357177	0.03281757993419789	-9.928699301373886	-2.000918150370401	-4.952308194290294	-23.82189842206256	6.509335115588862	0	25.22759452329576	-0.6275046330116676	-10.99385224408858	-12.34284875337229	-4.358475113573232	0	-6.658464068356844	-3.030648637137055	5.604173709780043
0.6651916446942784	-2.092775214494925	1.419404623761753	-5.037438839122001	0.7646395287535642	0.9522950694966278	0.03156021006193426	-8.902470331401361	-3.057637537090351	-4.719663619541329	-26.80463700986494	4.70985489658116	0	25.15015635373663	0.1285986815472602	-10.68813523282667	-13.66811520962089	-4.195883762668887	0	-6.162283426966491	-4.035581870455082	5.459696708319424
0.6770700669209618	-2.196492863531285	2.007061211700733	-4.998746669812547	0.7806362858772113	0.9531338059260164	0.03022564464390283	-7.497453046898879	-3.999235741577482	-4.362351623062818	-30.47813803467301	3.048582739742844	0	25.13412706821978	0.7784626486303712	-10.54088777023474	-15.20491166352527	-3.418840897096227	0	-5.747320231147291	-4.959019864818401	5.256827665826771
0.6889484891476455	-2.284341583090012	2.503554085305423	-4.86423128912131	0.7962809653989076	0.9541035855894994	0.02885264468981476	-5.723372298591283	-4.818647208397611	-3.963187537639961	-34.89704776773318	2.095749054682111	0	24.99602216479873	1.362807076775723	-10.53522886692033	-16.56312629283247	-2.394619830858981	0	-5.390862171519503	-5.797718995807298	5.009082035679317
0.7008269113743291	-2.359351708673557	2.966014474951708	-4.663028204973688	0.8116435221409796	0.9551216461484437	0.02746989271193959	-3.705232211208157	-5.567764521692179	-3.549068069665983	-39.78775331290389	1.788693423368705	0	24.65929376611451	1.958387221452278	-10.57284798398383	-17.58019885124269	-1.306559919462745	0	-5.063123350827835	-6.605149097498427	4.731376166946678
0.7127053336010125	-2.42407168345832	3.445255468418626	-4.419176608003756	0.8267493509157897	0.9561473610459622	0.02608578900114912	-1.590842768586186	-6.287104971414491	-3.084098795104283	-44.80173327379624	1.825929642140028	0	24.12988090901037	2.608816245000577	-10.65313920860456	-18.24079602954683	-0.2643004804142252	0	-4.749997378313329	-7.426445643354802	4.427963295743253
0.7245837558276961	-2.477368858256468	3.949267291874206	-4.154215437282605	0.8416141169345132	0.9572562019892464	0.02467475435050722	0.48668128588567	-6.98793168790851	-2.577137760360717	-49.50391372639485	1.47270533233863	0	23.41999058499283	3.314113062408031	-10.77850900630411	-18.5658733400339	0.6988270312770712	0	-4.454830555304473	-8.253807831860945	4.099667106257685
